<svg xmlns="http://www.w3.org/2000/svg" width="35.272" height="35.272" viewBox="0 0 35.272 35.272">
  <path id="Icon_ionic-ios-arrow-dropleft-circle" data-name="Icon ionic-ios-arrow-dropleft-circle" d="M21.011,3.375A17.636,17.636,0,1,0,38.647,21.011,17.634,17.634,0,0,0,21.011,3.375Zm3.68,24.513a1.643,1.643,0,0,1,0,2.315,1.616,1.616,0,0,1-1.153.475,1.645,1.645,0,0,1-1.162-.483l-7.97-8a1.635,1.635,0,0,1,.051-2.255l8.089-8.114a1.637,1.637,0,0,1,2.315,2.315l-6.944,6.868Z" transform="translate(-3.375 -3.375)" fill="#e2d9d6"/>
</svg>
