<?xml version="1.0" standalone="no"?>
<!DOCTYPE svg PUBLIC "-//W3C//DTD SVG 20010904//EN"
 "http://www.w3.org/TR/2001/REC-SVG-20010904/DTD/svg10.dtd">
<svg version="1.0" xmlns="http://www.w3.org/2000/svg"
 width="119.000000pt" height="119.000000pt" viewBox="0 0 119.000000 119.000000"
 preserveAspectRatio="xMidYMid meet">
<metadata>
Created by potrace 1.14, written by Peter Selinger 2001-2017
</metadata>
<g transform="translate(0.000000,119.000000) scale(0.100000,-0.100000)"
fill="#000000" stroke="none">
<path d="M447 993 c-98 -354 -105 -386 -56 -258 17 44 37 94 44 110 7 17 21
54 31 83 l18 52 51 0 52 0 133 -432 c73 -238 134 -435 136 -437 2 -3 231 -5
297 -2 l27 1 -40 51 c-62 78 -123 213 -206 454 -41 121 -91 265 -111 320 -19
55 -38 111 -42 125 l-7 25 -150 3 -150 3 -27 -98z"/>
<path d="M289 729 c-7 -194 -52 -244 -228 -248 -61 -2 -23 -16 65 -25 110 -10
147 -58 160 -203 5 -65 14 -83 14 -32 2 102 34 190 79 213 30 15 73 24 156 31
74 7 84 15 19 16 -192 2 -234 38 -251 211 -6 72 -12 87 -14 37z"/>
</g>
</svg>
